<svg width="834" height="662" viewBox="0 0 834 662" fill="none" xmlns="http://www.w3.org/2000/svg">
<g opacity="0.4">
<path opacity="0.4" d="M2.1748 2.46924H353.603" stroke="#F0F0F0" stroke-width="3.1554" stroke-miterlimit="10" stroke-linecap="round" stroke-linejoin="round"/>
<path opacity="0.4" d="M213.332 641.867H2.1748" stroke="#F0F0F0" stroke-width="3.1554" stroke-miterlimit="10" stroke-linecap="round" stroke-linejoin="round"/>
<path opacity="0.4" d="M2.1748 60.4326H353.603" stroke="#F0F0F0" stroke-width="3.1554" stroke-miterlimit="10" stroke-linecap="round" stroke-linejoin="round"/>
<path opacity="0.4" d="M289.093 583.543H2.1748" stroke="#F0F0F0" stroke-width="3.1554" stroke-miterlimit="10" stroke-linecap="round" stroke-linejoin="round"/>
<path opacity="0.4" d="M2.1748 118.756H125.193" stroke="#F0F0F0" stroke-width="3.1554" stroke-miterlimit="10" stroke-linecap="round" stroke-linejoin="round"/>
<path opacity="0.4" d="M349.477 525.58H2.1748" stroke="#F0F0F0" stroke-width="3.1554" stroke-miterlimit="10" stroke-linecap="round" stroke-linejoin="round"/>
<path opacity="0.4" d="M2.1748 176.719H155.948" stroke="#F0F0F0" stroke-width="3.1554" stroke-miterlimit="10" stroke-linecap="round" stroke-linejoin="round"/>
<path opacity="0.4" d="M24.3031 467.257H2.1748" stroke="#F0F0F0" stroke-width="3.1554" stroke-miterlimit="10" stroke-linecap="round" stroke-linejoin="round"/>
<path opacity="0.4" d="M2.1748 235.043H125.193" stroke="#F0F0F0" stroke-width="3.1554" stroke-miterlimit="10" stroke-linecap="round" stroke-linejoin="round"/>
<path opacity="0.4" d="M35.5548 409.293H2.1748" stroke="#F0F0F0" stroke-width="3.1554" stroke-miterlimit="10" stroke-linecap="round" stroke-linejoin="round"/>
<path opacity="0.4" d="M2.1748 293.006H98.9394" stroke="#F0F0F0" stroke-width="3.1554" stroke-miterlimit="10" stroke-linecap="round" stroke-linejoin="round"/>
<path opacity="0.4" d="M70.4351 350.97H2.1748" stroke="#F0F0F0" stroke-width="3.1554" stroke-miterlimit="10" stroke-linecap="round" stroke-linejoin="round"/>
<path opacity="0.4" d="M269.59 176.719H215.207" stroke="#F0F0F0" stroke-width="3.1554" stroke-miterlimit="10" stroke-linecap="round" stroke-linejoin="round"/>
<path opacity="0.4" d="M331.099 467.257H353.603" stroke="#F0F0F0" stroke-width="3.1554" stroke-miterlimit="10" stroke-linecap="round" stroke-linejoin="round"/>
<path opacity="0.4" d="M353.603 235.043H241.836" stroke="#F0F0F0" stroke-width="3.1554" stroke-miterlimit="10" stroke-linecap="round" stroke-linejoin="round"/>
<path opacity="0.4" d="M319.848 409.293H353.603" stroke="#F0F0F0" stroke-width="3.1554" stroke-miterlimit="10" stroke-linecap="round" stroke-linejoin="round"/>
<path opacity="0.4" d="M353.602 293.006H269.59" stroke="#F0F0F0" stroke-width="3.1554" stroke-miterlimit="10" stroke-linecap="round" stroke-linejoin="round"/>
<path opacity="0.4" d="M297.719 350.97H353.603" stroke="#F0F0F0" stroke-width="3.1554" stroke-miterlimit="10" stroke-linecap="round" stroke-linejoin="round"/>
<path opacity="0.4" d="M832.174 2.46924H480.747" stroke="#F0F0F0" stroke-width="3.1554" stroke-miterlimit="10" stroke-linecap="round" stroke-linejoin="round"/>
<path opacity="0.4" d="M621.018 641.867H832.174" stroke="#F0F0F0" stroke-width="3.1554" stroke-miterlimit="10" stroke-linecap="round" stroke-linejoin="round"/>
<path opacity="0.4" d="M832.174 60.4326H480.747" stroke="#F0F0F0" stroke-width="3.1554" stroke-miterlimit="10" stroke-linecap="round" stroke-linejoin="round"/>
<path opacity="0.4" d="M545.256 583.543H832.175" stroke="#F0F0F0" stroke-width="3.1554" stroke-miterlimit="10" stroke-linecap="round" stroke-linejoin="round"/>
<path opacity="0.4" d="M832.174 118.756H709.156" stroke="#F0F0F0" stroke-width="3.1554" stroke-miterlimit="10" stroke-linecap="round" stroke-linejoin="round"/>
<path opacity="0.4" d="M484.873 525.58H832.175" stroke="#F0F0F0" stroke-width="3.1554" stroke-miterlimit="10" stroke-linecap="round" stroke-linejoin="round"/>
<path opacity="0.4" d="M832.175 176.72H678.401" stroke="#F0F0F0" stroke-width="3.1554" stroke-miterlimit="10" stroke-linecap="round" stroke-linejoin="round"/>
<path opacity="0.4" d="M810.046 467.257H832.174" stroke="#F0F0F0" stroke-width="3.1554" stroke-miterlimit="10" stroke-linecap="round" stroke-linejoin="round"/>
<path opacity="0.4" d="M832.174 235.043H709.156" stroke="#F0F0F0" stroke-width="3.1554" stroke-miterlimit="10" stroke-linecap="round" stroke-linejoin="round"/>
<path opacity="0.4" d="M798.419 409.293H832.175" stroke="#F0F0F0" stroke-width="3.1554" stroke-miterlimit="10" stroke-linecap="round" stroke-linejoin="round"/>
<path opacity="0.4" d="M832.175 293.006H735.41" stroke="#F0F0F0" stroke-width="3.1554" stroke-miterlimit="10" stroke-linecap="round" stroke-linejoin="round"/>
<path opacity="0.4" d="M763.915 350.97H832.175" stroke="#F0F0F0" stroke-width="3.1554" stroke-miterlimit="10" stroke-linecap="round" stroke-linejoin="round"/>
<path opacity="0.4" d="M564.759 176.72H619.142" stroke="#F0F0F0" stroke-width="3.1554" stroke-miterlimit="10" stroke-linecap="round" stroke-linejoin="round"/>
<path opacity="0.4" d="M502.875 467.257H480.747" stroke="#F0F0F0" stroke-width="3.1554" stroke-miterlimit="10" stroke-linecap="round" stroke-linejoin="round"/>
<path opacity="0.4" d="M480.747 235.043H592.513" stroke="#F0F0F0" stroke-width="3.1554" stroke-miterlimit="10" stroke-linecap="round" stroke-linejoin="round"/>
<path opacity="0.4" d="M514.502 409.293H480.747" stroke="#F0F0F0" stroke-width="3.1554" stroke-miterlimit="10" stroke-linecap="round" stroke-linejoin="round"/>
<path opacity="0.4" d="M480.747 293.006H564.759" stroke="#F0F0F0" stroke-width="3.1554" stroke-miterlimit="10" stroke-linecap="round" stroke-linejoin="round"/>
<path opacity="0.4" d="M536.63 350.97H480.747" stroke="#F0F0F0" stroke-width="3.1554" stroke-miterlimit="10" stroke-linecap="round" stroke-linejoin="round"/>
<path d="M570.761 627.105H263.589C245.962 627.105 231.334 640.786 231.334 658.067H603.015C603.015 641.146 588.388 627.105 570.761 627.105Z" stroke="#F0F0F0" stroke-width="6.3108" stroke-miterlimit="10" stroke-linecap="round" stroke-linejoin="round"/>
<path d="M283.467 624.945C283.467 609.104 296.969 595.784 313.847 595.784H520.503C537.005 595.784 550.882 608.744 550.882 624.945" stroke="#F0F0F0" stroke-width="6.3108" stroke-miterlimit="10" stroke-linecap="round" stroke-linejoin="round"/>
<path d="M341.601 594.344C341.601 580.663 353.228 569.502 367.48 569.502H466.87C481.122 569.502 492.749 580.663 492.749 594.344" stroke="#F0F0F0" stroke-width="6.3108" stroke-miterlimit="10" stroke-linecap="round" stroke-linejoin="round"/>
<path d="M389.233 326.488C389.233 405.333 373.856 422.974 373.856 501.459C373.856 554.382 383.232 569.503 383.232 569.503" stroke="#F0F0F0" stroke-width="6.3108" stroke-miterlimit="10" stroke-linecap="round" stroke-linejoin="round"/>
<path d="M445.117 326.488C445.117 405.333 460.494 422.974 460.494 501.459C460.494 554.382 451.118 569.503 451.118 569.503" stroke="#F0F0F0" stroke-width="6.3108" stroke-miterlimit="10" stroke-linecap="round" stroke-linejoin="round"/>
<path d="M466.495 311.727C466.495 318.568 460.494 324.328 453.368 324.328H380.607C373.481 324.328 367.48 318.568 367.48 311.727C367.48 304.887 373.481 299.126 380.607 299.126H453.368C460.869 299.126 466.495 304.527 466.495 311.727Z" stroke="#F0F0F0" stroke-width="6.3108" stroke-miterlimit="10" stroke-linecap="round" stroke-linejoin="round"/>
<path d="M466.495 270.685C466.495 277.526 460.494 283.286 453.368 283.286H380.607C373.481 283.286 367.48 277.526 367.48 270.685C367.48 263.845 373.481 258.084 380.607 258.084H453.368C460.869 258.084 466.495 263.845 466.495 270.685Z" stroke="#F0F0F0" stroke-width="6.3108" stroke-miterlimit="10" stroke-linecap="round" stroke-linejoin="round"/>
<path d="M388.483 298.047V285.086" stroke="#F0F0F0" stroke-width="6.3108" stroke-miterlimit="10" stroke-linecap="round" stroke-linejoin="round"/>
<path d="M445.867 298.047V285.086" stroke="#F0F0F0" stroke-width="6.3108" stroke-miterlimit="10" stroke-linecap="round" stroke-linejoin="round"/>
<path d="M388.483 256.284V209.122" stroke="#F0F0F0" stroke-width="6.3108" stroke-miterlimit="10" stroke-linecap="round" stroke-linejoin="round"/>
<path d="M445.867 256.284V209.122" stroke="#F0F0F0" stroke-width="6.3108" stroke-miterlimit="10" stroke-linecap="round" stroke-linejoin="round"/>
<path d="M409.486 83.8337V66.5527" stroke="#F0F0F0" stroke-width="6.3108" stroke-miterlimit="10" stroke-linecap="round" stroke-linejoin="round"/>
<path d="M424.864 83.8337V66.5527" stroke="#F0F0F0" stroke-width="6.3108" stroke-miterlimit="10" stroke-linecap="round" stroke-linejoin="round"/>
<path d="M143.649 118.619H143.669H143.698H143.728H143.758H143.788H143.819H143.85H143.881H143.912H143.944H143.976H144.009H144.041H144.074H144.107H144.141H144.175H144.209H144.243H144.278H144.313H144.348H144.383H144.419H144.455H144.492H144.528H144.565H144.603H144.64H144.678H144.716H144.755H144.794H144.833H144.872H144.912H144.952H144.992H145.032H145.073H145.114H145.156H145.197H145.24H145.282H145.325H145.367H145.411H145.454H145.498H145.542H145.587H145.631H145.677H145.722H145.768H145.814H145.86H145.906H145.953H146H146.048H146.096H146.144H146.192H146.241H146.29H146.34H146.389H146.439H146.489H146.54H146.591H146.642H146.694H146.746H146.798H146.85H146.903H146.956H147.009H147.063H147.117H147.172H147.226H147.281H147.337H147.392H147.448H147.504H147.561H147.618H147.675H147.733H147.791H147.849H147.907H147.966H148.025H148.085H148.144H148.204H148.265H148.326H148.387H148.448H148.51H148.572H148.634H148.697H148.76H148.823H148.887H148.951H149.015H149.08H149.145H149.21H149.276H149.342H149.408H149.475H149.542H149.609H149.677H149.745H149.813H149.882H149.951H150.02H150.09H150.16H150.23H150.3H150.371H150.443H150.514H150.586H150.659H150.731H150.804H150.878H150.951H151.025H151.1H151.174H151.249H151.325H151.4H151.476H151.553H151.63H151.707H151.784H151.862H151.94H152.018H152.097H152.176H152.256H152.335H152.416H152.496H152.577H152.658H152.74H152.822H152.904H152.986H153.069H153.153H153.236H153.32H153.405H153.489H153.574H153.66H153.746H153.832H153.918H154.005H154.092H154.18H154.267H154.356H154.444H154.533H154.622H154.712H154.802H154.892H154.983H155.074H155.166H155.257H155.35H155.442H155.535H155.628H155.722H155.816H155.91H156.005H156.1H156.195H156.291H156.387H156.483H156.58H156.677H156.775H156.873H156.971H157.07H157.169H157.268H157.368H157.468H157.569H157.67H157.771H157.872H157.974H158.077H158.179H158.283H158.386H158.49H158.594H158.699H158.804H158.909H159.015H159.121H159.227H159.334H159.441H159.549H159.657H159.765H159.874H159.983H160.092H160.202H160.312H160.423H160.534H160.645H160.757H160.869H160.981H161.094H161.207H161.321H161.435H161.549H161.664H161.779H161.895H162.011H162.127H162.244H162.361H162.478H162.596H162.714H162.833H162.952H163.071H163.191H163.311H163.431H163.552H163.674H163.795H163.917H164.04H164.163H164.286H164.41H164.534H164.658H164.783H164.908H165.034H165.16H165.286H165.413H165.54H165.668H165.796H165.924H166.053H166.182H166.312H166.442H166.572H166.703H166.834H166.966H167.098H167.23H167.363H167.496H167.629H167.763H167.898H168.032H168.168H168.303H168.439H168.576H168.712H168.85H168.987H169.125H169.263H169.402H169.541H169.681H169.821H169.962H170.102H170.244H170.385H170.527H170.67H170.813H170.956H171.1H171.244H171.388H171.533H171.679H171.824H171.971H172.117H172.264H172.412H172.559H172.708H172.856H173.005H173.155H173.305H173.455H173.606H173.757H173.909H174.061H174.213H174.366H174.519H174.673H174.827H174.981H175.136H175.292H175.447H175.604H175.76H175.917H176.075H176.233H176.391H176.55H176.709H176.868H177.028H177.189H177.35H177.511H177.673H177.835H177.997H178.16H178.324H178.488H178.652H178.817H178.982H179.147H179.313H179.48H179.647H179.814H179.982H180.15H180.319H180.488H180.657H180.827H180.997H181.168H181.339H181.511H181.683H181.856H182.028H182.202C205.244 118.619 224.824 125.665 244.052 136.276C257.198 143.531 270.269 152.511 284.173 162.062C290.526 166.426 297.052 170.91 303.84 175.403C344.377 202.177 383.794 207.544 417.362 207.544C450.93 207.544 490.347 202.178 530.884 175.404C537.671 170.911 544.198 166.427 550.551 162.062C564.456 152.511 577.527 143.531 590.673 136.276C609.9 125.665 629.481 118.619 652.523 118.619H143.649ZM143.649 118.619V85.0518H161C161.256 85.5058 161.617 86.1113 162.087 86.821C163.121 88.3803 164.693 90.4555 166.857 92.5328C171.194 96.6954 177.942 100.893 187.453 100.893C196.946 100.893 204.143 96.7103 208.923 92.5896C211.315 90.5282 213.119 88.4684 214.329 86.9206C214.927 86.1548 215.382 85.5116 215.692 85.0518H215.696H215.726H215.756H215.786H215.817H215.849H215.881H215.913H215.946H215.979H216.013H216.047H216.081H216.116H216.152H216.188H216.224H216.261H216.298H216.336H216.374H216.412H216.451H216.49H216.53H216.57H216.611H216.652H216.693H216.735H216.777H216.82H216.863H216.906H216.95H216.994H217.039H217.084H217.13H217.176H217.222H217.268H217.315H217.363H217.411H217.459H217.507H217.556H217.606H217.655H217.705H217.756H217.807H217.858H217.909H217.961H218.014H218.066H218.119H218.173H218.226H218.28H218.335H218.39H218.445H218.5H218.556H218.612H218.669H218.725H218.783H218.84H218.898H218.956H219.015H219.074H219.133H219.192H219.252H219.312H219.373H219.433H219.495H219.556H219.618H219.68H219.742H219.805H219.868H219.931H219.995H220.058H220.123H220.187H220.252H220.317H220.382H220.448H220.514H220.58H220.647H220.713H220.78H220.848H220.915H220.983H221.051H221.12H221.188H221.257H221.327H221.396H221.466H221.536H221.606H221.677H221.748H221.819H221.89H221.961H222.033H222.105H222.178H222.25H222.323H222.396H222.469H222.543H222.616H222.69H222.764H222.839H222.913H222.988H223.063H223.139H223.214H223.29H223.366H223.442H223.518H223.595H223.672H223.749H223.826H223.903H223.981H224.059H224.137H224.215H224.293H224.372H224.451H224.53H224.609H224.688H224.768H224.847H224.927H225.007H225.088H225.168H225.248H225.329H225.41H225.491H225.572H225.654H225.735H225.817H225.899H225.981H226.063H226.146H226.228H226.311H226.393H226.476H226.559H226.643H226.726H226.81H226.893H226.977H227.061H227.145H227.229H227.313H227.398H227.482H227.567H227.652H227.736H227.821H227.907H227.992H228.077H228.163H228.248H228.334H228.42H228.505H228.591H228.677H228.764H228.85H228.936H229.023H229.109H229.196H229.282H229.369H229.456H229.543H229.63H229.717H229.804H229.891H229.979H230.066H230.154H230.241H230.329H230.416H230.504H230.592H230.679H230.767H230.855H230.943H231.031H231.119H231.207H231.296H231.384H231.472H231.56H231.648H231.737H231.825H231.914H232.002H232.09H232.179H232.267H232.356H232.444H232.533H232.622H232.71H232.799H232.887H232.976H233.065H233.153H233.242H233.331H233.419H233.508H233.596H233.685H233.774H233.862H233.951H234.039H234.128H234.217H234.305H234.394H234.482H234.571H234.659H234.747H234.836H234.924H235.013H235.101H235.189H235.277H235.365H235.454H235.542H235.63H235.718H235.806H235.894H235.981H236.069H236.157H236.245H236.332H236.42H236.507H236.595H236.682H236.769H236.856H236.944H237.031H237.118H237.205H237.291H237.378H237.465H237.551H237.638H237.724H237.811H237.897H237.983H238.069H238.155H238.241H238.327H238.412H238.498H238.583H238.668H238.754H238.839H238.924H239.009H239.093H239.178H239.262H239.347H239.431H239.515H239.599H239.683H239.767H239.85H239.934H240.017H240.1H240.183H240.266H240.349H240.432H240.514H240.596H240.679H240.761H240.842H240.924H241.006H241.087H241.168H241.249H241.33H241.411H241.491H241.572H241.652H241.732H241.812H241.891H241.971H242.05H242.129H242.208H242.287H242.365H242.444H242.522H242.6H242.678H242.755H242.833H242.91H242.987H243.063H243.14H243.216H243.292H243.368H243.444H243.519H243.595H243.67H243.744H243.819H243.893H243.968H244.041H244.115H244.189H244.262H244.335H244.407H244.48H244.552H244.624H244.696H244.767H244.839H244.91H244.98H245.051H245.121H245.191H245.261H245.33H245.399H245.468H245.537H245.605H245.673H245.741H245.809H245.876H245.943H246.01H246.076H246.142H246.208H246.274H246.339H246.404H246.469H246.533H246.597H246.661H246.724H246.788H246.85H246.913H246.975H247.037H247.099H247.16H247.221H247.282H247.342H247.403H247.462H247.522H247.581H247.64H247.698H247.756H247.814H247.871H247.929H247.985H248.042H248.098H248.154H248.209H248.264H248.319H248.373H248.427H248.481H248.534H248.587C251.685 85.0518 255.427 85.9508 259.831 87.6251C264.22 89.2936 269.161 91.6911 274.634 94.5991C279.931 97.4139 285.685 100.685 291.878 104.207L292.486 104.553C298.905 108.202 305.78 112.103 313.054 116.006C342.129 131.607 377.764 147.335 416.987 147.335C456.21 147.335 491.846 131.607 520.921 116.006C528.195 112.103 535.07 108.202 541.488 104.553L542.098 104.206C548.291 100.685 554.044 97.4137 559.341 94.5991C564.813 91.6911 569.755 89.2936 574.144 87.6251C578.547 85.9508 582.29 85.0518 585.388 85.0518H585.441H585.494H585.547H585.601H585.656H585.71H585.766H585.821H585.877H585.933H585.989H586.046H586.103H586.16H586.218H586.276H586.335H586.394H586.453H586.512H586.572H586.632H586.692H586.753H586.814H586.875H586.937H586.999H587.061H587.124H587.187H587.25H587.314H587.377H587.441H587.506H587.571H587.636H587.701H587.766H587.832H587.898H587.965H588.032H588.099H588.166H588.233H588.301H588.369H588.438H588.506H588.575H588.644H588.714H588.784H588.854H588.924H588.994H589.065H589.136H589.207H589.279H589.35H589.422H589.495H589.567H589.64H589.713H589.786H589.859H589.933H590.007H590.081H590.155H590.23H590.305H590.38H590.455H590.531H590.606H590.682H590.758H590.835H590.911H590.988H591.065H591.142H591.219H591.297H591.375H591.453H591.531H591.609H591.688H591.766H591.845H591.924H592.004H592.083H592.163H592.243H592.323H592.403H592.483H592.564H592.644H592.725H592.806H592.887H592.969H593.05H593.132H593.214H593.296H593.378H593.46H593.543H593.625H593.708H593.791H593.874H593.957H594.041H594.124H594.208H594.291H594.375H594.459H594.543H594.628H594.712H594.797H594.881H594.966H595.051H595.136H595.221H595.306H595.391H595.477H595.562H595.648H595.734H595.819H595.905H595.991H596.078H596.164H596.25H596.337H596.423H596.51H596.596H596.683H596.77H596.857H596.944H597.031H597.118H597.205H597.292H597.38H597.467H597.555H597.642H597.73H597.818H597.905H597.993H598.081H598.169H598.257H598.345H598.433H598.521H598.609H598.697H598.785H598.874H598.962H599.05H599.139H599.227H599.315H599.404H599.492H599.581H599.669H599.758H599.846H599.935H600.024H600.112H600.201H600.289H600.378H600.467H600.555H600.644H600.733H600.821H600.91H600.998H601.087H601.176H601.264H601.353H601.441H601.53H601.619H601.707H601.796H601.884H601.973H602.061H602.149H602.238H602.326H602.414H602.503H602.591H602.679H602.767H602.855H602.943H603.031H603.119H603.207H603.295H603.383H603.471H603.558H603.646H603.733H603.821H603.908H603.996H604.083H604.17H604.257H604.344H604.432H604.518H604.605H604.692H604.779H604.865H604.952H605.038H605.125H605.211H605.297H605.383H605.469H605.555H605.641H605.726H605.812H605.897H605.983H606.068H606.153H606.238H606.323H606.408H606.492H606.577H606.661H606.745H606.83H606.914H606.998H607.081H607.165H607.248H607.332H607.415H607.498H607.581H607.664H607.746H607.829H607.911H607.993H608.075H608.157H608.239H608.321H608.402H608.483H608.564H608.645H608.726H608.807H608.887H608.967H609.047H609.127H609.207H609.286H609.366H609.445H609.524H609.603H609.681H609.759H609.838H609.916H609.993H610.071H610.148H610.226H610.303H610.379H610.456H610.532H610.609H610.685H610.76H610.836H610.911H610.986H611.061H611.136H611.21H611.284H611.358H611.432H611.505H611.579H611.652H611.724H611.797H611.869H611.941H612.013H612.085H612.156H612.227H612.298H612.368H612.439H612.509H612.578H612.648H612.717H612.786H612.855H612.923H612.991H613.059H613.127H613.194H613.261H613.328H613.394H613.461H613.527H613.592H613.658H613.723H613.787H613.852H613.916H613.98H614.043H614.107H614.17H614.232H614.295H614.357H614.418H614.48H614.541H614.602H614.662H614.722H614.782H614.842H614.901H614.96H615.018H615.076H615.134H615.192H615.249H615.306H615.362H615.418H615.474H615.53H615.585H615.64H615.694H615.748H615.802H615.855H615.908H615.961H616.013H616.065H616.117H616.168H616.219H616.269H616.319H616.369H616.418H616.467H616.516H616.564H616.612H616.659H616.706H616.753H616.799H616.845H616.89H616.935H616.98H617.024H617.068H617.112H617.155H617.197H617.239H617.281H617.323H617.364H617.404H617.444H617.484H617.524H617.562H617.601H617.639H617.677H617.714H617.75H617.787H617.823H617.858H617.893H617.928H617.962H617.995H618.029H618.061H618.094H618.126H618.157H618.188H618.219H618.249H618.278H618.307H618.31C618.311 85.053 618.311 85.0541 618.312 85.0552C618.633 85.5053 619.107 86.1394 619.73 86.8961C620.975 88.4078 622.827 90.419 625.264 92.4313C630.136 96.453 637.418 100.533 646.897 100.533C656.395 100.533 663.14 96.4362 667.479 92.3652C669.644 90.3341 671.218 88.3045 672.253 86.7787C672.771 86.0148 673.157 85.374 673.415 84.9181C673.545 84.6901 673.643 84.508 673.71 84.3795C673.744 84.3152 673.77 84.2644 673.788 84.2278L673.81 84.1839L673.817 84.1701L673.819 84.1654L673.82 84.1636C673.82 84.1628 673.821 84.1621 672.401 83.4741H692.654V119.037C692.654 118.619 692.654 118.619 692.653 118.619H692.653H692.652H692.651H692.649H692.648H692.646H692.644H692.642H692.639H692.636H692.633H692.63H692.627H692.623H692.619H692.615H692.61H692.605H692.6H692.595H692.589H692.584H692.578H692.571H692.565H692.558H692.551H692.544H692.536H692.529H692.521H692.512H692.504H692.495H692.486H692.477H692.467H692.457H692.447H692.437H692.426H692.416H692.405H692.393H692.382H692.37H692.358H692.345H692.333H692.32H692.307H692.293H692.28H692.266H692.251H692.237H692.222H692.207H692.192H692.177H692.161H692.145H692.128H692.112H692.095H692.078H692.06H692.043H692.025H692.007H691.988H691.97H691.951H691.931H691.912H691.892H691.872H691.852H691.831H691.81H691.789H691.768H691.746H691.724H691.702H691.679H691.657H691.633H691.61H691.587H691.563H691.539H691.514H691.489H691.464H691.439H691.414H691.388H691.362H691.335H691.309H691.282H691.254H691.227H691.199H691.171H691.143H691.114H691.085H691.076M143.649 118.619H691.076M691.076 118.619H691.056H691.026H690.997H690.967H690.936H690.906H690.875H690.844H690.812H690.78H690.748H690.716H690.683H690.65H690.617H690.584H690.55H690.516H690.482H690.447H690.412H690.377H690.341H690.305H690.269H690.233H690.196H690.159H690.122H690.084H690.046H690.008H689.97H689.931H689.892H689.853H689.813H689.773H689.733H689.692H689.651H689.61H689.569H689.527H689.485H689.443H689.4H689.357H689.314H689.27H689.227H689.182H689.138H689.093H689.048H689.003H688.957H688.911H688.865H688.818H688.771H688.724H688.677H688.629H688.581H688.532H688.484H688.434H688.385H688.335H688.285H688.235H688.185H688.134H688.082H688.031H687.979H687.927H687.874H687.822H687.769H687.715H687.661H687.607H687.553H687.498H687.443H687.388H687.332H687.276H687.22H687.164H687.107H687.049H686.992H686.934H686.876H686.817H686.759H686.699H686.64H686.58H686.52H686.46H686.399H686.338H686.276H686.215H686.153H686.09H686.028H685.965H685.901H685.838H685.774H685.709H685.645H685.58H685.514H685.449H685.383H685.316H685.25H685.183H685.115H685.048H684.98H684.911H684.843H684.774H684.705H684.635H684.565H684.495H684.424H684.353H684.282H684.21H684.138H684.066H683.993H683.92H683.847H683.773H683.699H683.625H683.55H683.475H683.4H683.324H683.248H683.172H683.095H683.018H682.941H682.863H682.785H682.706H682.628H682.548H682.469H682.389H682.309H682.228H682.148H682.066H681.985H681.903H681.821H681.738H681.655H681.572H681.488H681.404H681.32H681.235H681.15H681.065H680.979H680.893H680.807H680.72H680.633H680.545H680.457H680.369H680.28H680.191H680.102H680.013H679.923H679.832H679.742H679.65H679.559H679.467H679.375H679.283H679.19H679.096H679.003H678.909H678.815H678.72H678.625H678.53H678.434H678.338H678.241H678.144H678.047H677.95H677.852H677.753H677.655H677.556H677.456H691.076Z" stroke="#F0F0F0" stroke-width="3.1554"/>
<path d="M672.401 83.4741C672.401 83.4741 664.9 98.955 646.897 98.955C628.894 98.955 619.143 83.4741 619.143 83.4741C619.143 83.4741 594.389 83.4741 585.388 83.4741C558.384 83.4741 494.624 145.758 416.987 145.758C339.351 145.758 275.591 83.4741 248.587 83.4741C239.586 83.4741 214.832 83.4741 214.832 83.4741C214.832 83.4741 205.455 99.3151 187.453 99.3151C169.45 99.3151 161.949 83.4741 161.949 83.4741H142.071V120.196C142.071 120.196 152.572 120.196 182.202 120.196C227.584 120.196 259.463 147.918 302.97 176.72C343.851 203.721 383.607 209.122 417.362 209.122C451.117 209.122 490.873 203.721 531.755 176.72C575.261 147.918 607.141 120.196 652.523 120.196C682.152 120.196 692.654 120.196 692.654 120.196V83.4741H672.401Z" stroke="#F0F0F0" stroke-width="6.3108" stroke-miterlimit="10" stroke-linecap="round" stroke-linejoin="round"/>
<path d="M748.912 464.959H546.382C528 464.959 513.101 449.018 512.358 428.872H782.936C782.193 449.018 767.294 464.959 748.912 464.959Z" stroke="#F0F0F0" stroke-width="3.1554"/>
<path d="M541.506 468.337C541.506 474.457 546.007 479.498 551.633 479.498H743.662C749.288 479.498 753.788 474.457 753.788 468.337" stroke="#F0F0F0" stroke-width="6.3108" stroke-miterlimit="10" stroke-linecap="round" stroke-linejoin="round"/>
<path d="M773.291 426.574L647.647 160.878L522.003 426.574" stroke="#F0F0F0" stroke-width="6.3108" stroke-miterlimit="10" stroke-linecap="round" stroke-linejoin="round"/>
<path d="M647.647 168.079V94.6348" stroke="#F0F0F0" stroke-width="9.4662" stroke-miterlimit="10" stroke-linecap="round" stroke-linejoin="round"/>
<path d="M287.968 464.959H85.4375C67.0553 464.959 52.1563 449.018 51.4138 428.872H321.992C321.249 449.018 306.35 464.959 287.968 464.959Z" stroke="#F0F0F0" stroke-width="3.1554"/>
<path d="M546.382 466.537H748.912C768.79 466.537 784.543 448.896 784.543 427.294H510.751C510.751 448.896 526.504 466.537 546.382 466.537Z" stroke="#F0F0F0" stroke-width="6.3108" stroke-miterlimit="10" stroke-linecap="round" stroke-linejoin="round"/>
<path d="M85.4375 466.537H287.968C307.846 466.537 323.598 448.896 323.598 427.294H49.8071C49.8071 448.896 65.5595 466.537 85.4375 466.537Z" stroke="#F0F0F0" stroke-width="6.3108" stroke-miterlimit="10" stroke-linecap="round" stroke-linejoin="round"/>
<path d="M80.1865 468.337C80.1865 474.457 84.6872 479.498 90.3131 479.498H282.342C287.968 479.498 292.468 474.457 292.468 468.337" stroke="#F0F0F0" stroke-width="6.3108" stroke-miterlimit="10" stroke-linecap="round" stroke-linejoin="round"/>
<path d="M312.346 426.574L186.702 160.878L61.0586 426.574" stroke="#F0F0F0" stroke-width="6.3108" stroke-miterlimit="10" stroke-linecap="round" stroke-linejoin="round"/>
<path d="M186.703 168.079V94.6348" stroke="#F0F0F0" stroke-width="9.4662" stroke-miterlimit="10" stroke-linecap="round" stroke-linejoin="round"/>
<path d="M393.734 142.517V106.515C393.734 94.2744 404.235 84.1938 416.987 84.1938C429.739 84.1938 440.241 94.2744 440.241 106.515V142.517" stroke="#F0F0F0" stroke-width="6.3108" stroke-miterlimit="10" stroke-linecap="round" stroke-linejoin="round"/>
<path d="M442.866 40.2716C442.866 53.9524 431.239 65.1131 416.987 65.1131C402.735 65.1131 391.108 53.9524 391.108 40.2716C391.108 26.5908 402.735 15.4302 416.987 15.4302C431.239 15.4302 442.866 26.5908 442.866 40.2716Z" stroke="#F0F0F0" stroke-width="6.3108" stroke-miterlimit="10" stroke-linecap="round" stroke-linejoin="round"/>
<path d="M186.703 168.079V426.574" stroke="#F0F0F0" stroke-width="6.3108" stroke-miterlimit="10" stroke-linecap="round" stroke-linejoin="round"/>
<path d="M647.647 168.079V426.574" stroke="#F0F0F0" stroke-width="6.3108" stroke-miterlimit="10" stroke-linecap="round" stroke-linejoin="round"/>
</g>
</svg>
