<svg width="20" height="21" viewBox="0 0 20 21" fill="none" xmlns="http://www.w3.org/2000/svg">
<path d="M10 20.5C4.477 20.5 0 16.023 0 10.5C0 4.977 4.477 0.5 10 0.5C15.523 0.5 20 4.977 20 10.5C20 16.023 15.523 20.5 10 20.5ZM10 18.5C12.1217 18.5 14.1566 17.6571 15.6569 16.1569C17.1571 14.6566 18 12.6217 18 10.5C18 8.37827 17.1571 6.34344 15.6569 4.84315C14.1566 3.34285 12.1217 2.5 10 2.5C7.87827 2.5 5.84344 3.34285 4.34315 4.84315C2.84285 6.34344 2 8.37827 2 10.5C2 12.6217 2.84285 14.6566 4.34315 16.1569C5.84344 17.6571 7.87827 18.5 10 18.5ZM9 13.5H11V15.5H9V13.5ZM11 11.855V12.5H9V11C9 10.7348 9.10536 10.4804 9.29289 10.2929C9.48043 10.1054 9.73478 10 10 10C10.2841 9.99998 10.5623 9.9193 10.8023 9.76733C11.0423 9.61536 11.2343 9.39837 11.3558 9.14158C11.4773 8.8848 11.5234 8.5988 11.4887 8.31684C11.454 8.03489 11.34 7.76858 11.1598 7.54891C10.9797 7.32924 10.7409 7.16523 10.4712 7.07597C10.2015 6.98671 9.91204 6.97587 9.63643 7.04471C9.36081 7.11354 9.11042 7.25923 8.91437 7.46482C8.71832 7.6704 8.58468 7.92743 8.529 8.206L6.567 7.813C6.68863 7.20508 6.96951 6.64037 7.38092 6.17659C7.79233 5.7128 8.31952 5.36658 8.90859 5.17332C9.49766 4.98006 10.1275 4.94669 10.7337 5.07661C11.3399 5.20654 11.9007 5.49511 12.3588 5.91282C12.8169 6.33054 13.1559 6.86241 13.3411 7.45406C13.5263 8.04572 13.5511 8.67594 13.4129 9.28031C13.2747 9.88467 12.9785 10.4415 12.5545 10.8939C12.1306 11.3462 11.5941 11.6779 11 11.855Z" fill="#F5CB00"/>
</svg>
