<svg width="834" height="661" viewBox="0 0 834 661" fill="none" xmlns="http://www.w3.org/2000/svg">
<g opacity="0.4">
<path opacity="0.4" d="M2 2H353.428" stroke="#F0F0F0" stroke-width="3.1554" stroke-miterlimit="10" stroke-linecap="round" stroke-linejoin="round"/>
<path opacity="0.4" d="M213.157 641.398H2" stroke="#F0F0F0" stroke-width="3.1554" stroke-miterlimit="10" stroke-linecap="round" stroke-linejoin="round"/>
<path opacity="0.4" d="M2 59.9634H353.428" stroke="#F0F0F0" stroke-width="3.1554" stroke-miterlimit="10" stroke-linecap="round" stroke-linejoin="round"/>
<path opacity="0.4" d="M288.918 583.074H2" stroke="#F0F0F0" stroke-width="3.1554" stroke-miterlimit="10" stroke-linecap="round" stroke-linejoin="round"/>
<path opacity="0.4" d="M2 118.287H125.019" stroke="#F0F0F0" stroke-width="3.1554" stroke-miterlimit="10" stroke-linecap="round" stroke-linejoin="round"/>
<path opacity="0.4" d="M349.302 525.111H2" stroke="#F0F0F0" stroke-width="3.1554" stroke-miterlimit="10" stroke-linecap="round" stroke-linejoin="round"/>
<path opacity="0.4" d="M2 176.25H155.773" stroke="#F0F0F0" stroke-width="3.1554" stroke-miterlimit="10" stroke-linecap="round" stroke-linejoin="round"/>
<path opacity="0.4" d="M24.1283 466.787H2" stroke="#F0F0F0" stroke-width="3.1554" stroke-miterlimit="10" stroke-linecap="round" stroke-linejoin="round"/>
<path opacity="0.4" d="M2 234.574H125.019" stroke="#F0F0F0" stroke-width="3.1554" stroke-miterlimit="10" stroke-linecap="round" stroke-linejoin="round"/>
<path opacity="0.4" d="M35.38 408.824H2" stroke="#F0F0F0" stroke-width="3.1554" stroke-miterlimit="10" stroke-linecap="round" stroke-linejoin="round"/>
<path opacity="0.4" d="M2 292.537H98.7646" stroke="#F0F0F0" stroke-width="3.1554" stroke-miterlimit="10" stroke-linecap="round" stroke-linejoin="round"/>
<path opacity="0.4" d="M70.2603 350.5H2" stroke="#F0F0F0" stroke-width="3.1554" stroke-miterlimit="10" stroke-linecap="round" stroke-linejoin="round"/>
<path opacity="0.4" d="M269.415 176.25H215.032" stroke="#F0F0F0" stroke-width="3.1554" stroke-miterlimit="10" stroke-linecap="round" stroke-linejoin="round"/>
<path opacity="0.4" d="M330.925 466.787H353.428" stroke="#F0F0F0" stroke-width="3.1554" stroke-miterlimit="10" stroke-linecap="round" stroke-linejoin="round"/>
<path opacity="0.4" d="M353.428 234.574H241.661" stroke="#F0F0F0" stroke-width="3.1554" stroke-miterlimit="10" stroke-linecap="round" stroke-linejoin="round"/>
<path opacity="0.4" d="M319.673 408.824H353.428" stroke="#F0F0F0" stroke-width="3.1554" stroke-miterlimit="10" stroke-linecap="round" stroke-linejoin="round"/>
<path opacity="0.4" d="M353.428 292.537H269.415" stroke="#F0F0F0" stroke-width="3.1554" stroke-miterlimit="10" stroke-linecap="round" stroke-linejoin="round"/>
<path opacity="0.4" d="M297.544 350.5H353.427" stroke="#F0F0F0" stroke-width="3.1554" stroke-miterlimit="10" stroke-linecap="round" stroke-linejoin="round"/>
<path opacity="0.4" d="M832 1.99997H480.572" stroke="#F0F0F0" stroke-width="3.1554" stroke-miterlimit="10" stroke-linecap="round" stroke-linejoin="round"/>
<path opacity="0.4" d="M620.844 641.397H832.001" stroke="#F0F0F0" stroke-width="3.1554" stroke-miterlimit="10" stroke-linecap="round" stroke-linejoin="round"/>
<path opacity="0.4" d="M832 59.9634H480.572" stroke="#F0F0F0" stroke-width="3.1554" stroke-miterlimit="10" stroke-linecap="round" stroke-linejoin="round"/>
<path opacity="0.4" d="M545.082 583.074H832" stroke="#F0F0F0" stroke-width="3.1554" stroke-miterlimit="10" stroke-linecap="round" stroke-linejoin="round"/>
<path opacity="0.4" d="M832 118.287H708.981" stroke="#F0F0F0" stroke-width="3.1554" stroke-miterlimit="10" stroke-linecap="round" stroke-linejoin="round"/>
<path opacity="0.4" d="M484.698 525.111H832.001" stroke="#F0F0F0" stroke-width="3.1554" stroke-miterlimit="10" stroke-linecap="round" stroke-linejoin="round"/>
<path opacity="0.4" d="M832.001 176.25H678.228" stroke="#F0F0F0" stroke-width="3.1554" stroke-miterlimit="10" stroke-linecap="round" stroke-linejoin="round"/>
<path opacity="0.4" d="M809.871 466.787H831.999" stroke="#F0F0F0" stroke-width="3.1554" stroke-miterlimit="10" stroke-linecap="round" stroke-linejoin="round"/>
<path opacity="0.4" d="M832 234.574H708.981" stroke="#F0F0F0" stroke-width="3.1554" stroke-miterlimit="10" stroke-linecap="round" stroke-linejoin="round"/>
<path opacity="0.4" d="M798.246 408.824H832.001" stroke="#F0F0F0" stroke-width="3.1554" stroke-miterlimit="10" stroke-linecap="round" stroke-linejoin="round"/>
<path opacity="0.4" d="M832 292.537H735.235" stroke="#F0F0F0" stroke-width="3.1554" stroke-miterlimit="10" stroke-linecap="round" stroke-linejoin="round"/>
<path opacity="0.4" d="M763.74 350.5H832" stroke="#F0F0F0" stroke-width="3.1554" stroke-miterlimit="10" stroke-linecap="round" stroke-linejoin="round"/>
<path opacity="0.4" d="M564.585 176.25H618.968" stroke="#F0F0F0" stroke-width="3.1554" stroke-miterlimit="10" stroke-linecap="round" stroke-linejoin="round"/>
<path opacity="0.4" d="M502.701 466.787H480.572" stroke="#F0F0F0" stroke-width="3.1554" stroke-miterlimit="10" stroke-linecap="round" stroke-linejoin="round"/>
<path opacity="0.4" d="M480.572 234.574H592.339" stroke="#F0F0F0" stroke-width="3.1554" stroke-miterlimit="10" stroke-linecap="round" stroke-linejoin="round"/>
<path opacity="0.4" d="M514.327 408.824H480.572" stroke="#F0F0F0" stroke-width="3.1554" stroke-miterlimit="10" stroke-linecap="round" stroke-linejoin="round"/>
<path opacity="0.4" d="M480.572 292.537H564.585" stroke="#F0F0F0" stroke-width="3.1554" stroke-miterlimit="10" stroke-linecap="round" stroke-linejoin="round"/>
<path opacity="0.4" d="M536.456 350.5H480.572" stroke="#F0F0F0" stroke-width="3.1554" stroke-miterlimit="10" stroke-linecap="round" stroke-linejoin="round"/>
<path d="M570.585 626.637H263.414C245.786 626.637 231.159 640.317 231.159 657.598H602.84C602.84 640.677 588.213 626.637 570.585 626.637Z" stroke="#F0F0F0" stroke-width="6.3108" stroke-miterlimit="10" stroke-linecap="round" stroke-linejoin="round"/>
<path d="M283.292 624.477C283.292 608.636 296.794 595.315 313.672 595.315H520.328C536.83 595.315 550.707 608.276 550.707 624.477" stroke="#F0F0F0" stroke-width="6.3108" stroke-miterlimit="10" stroke-linecap="round" stroke-linejoin="round"/>
<path d="M341.426 593.875C341.426 580.194 353.053 569.033 367.305 569.033H466.695C480.947 569.033 492.573 580.194 492.573 593.875" stroke="#F0F0F0" stroke-width="6.3108" stroke-miterlimit="10" stroke-linecap="round" stroke-linejoin="round"/>
<path d="M389.058 326.019C389.058 404.864 373.681 422.505 373.681 500.989C373.681 553.912 383.057 569.033 383.057 569.033" stroke="#F0F0F0" stroke-width="6.3108" stroke-miterlimit="10" stroke-linecap="round" stroke-linejoin="round"/>
<path d="M444.941 326.019C444.941 404.864 460.319 422.505 460.319 500.989C460.319 553.912 450.942 569.033 450.942 569.033" stroke="#F0F0F0" stroke-width="6.3108" stroke-miterlimit="10" stroke-linecap="round" stroke-linejoin="round"/>
<path d="M466.32 311.258C466.32 318.099 460.319 323.859 453.193 323.859H380.432C373.306 323.859 367.305 318.099 367.305 311.258C367.305 304.418 373.306 298.657 380.432 298.657H453.193C460.694 298.657 466.32 304.058 466.32 311.258Z" stroke="#F0F0F0" stroke-width="6.3108" stroke-miterlimit="10" stroke-linecap="round" stroke-linejoin="round"/>
<path d="M466.32 270.216C466.32 277.056 460.319 282.817 453.193 282.817H380.432C373.306 282.817 367.305 277.056 367.305 270.216C367.305 263.375 373.306 257.615 380.432 257.615H453.193C460.694 257.615 466.32 263.375 466.32 270.216Z" stroke="#F0F0F0" stroke-width="6.3108" stroke-miterlimit="10" stroke-linecap="round" stroke-linejoin="round"/>
<path d="M388.309 297.577V284.617" stroke="#F0F0F0" stroke-width="6.3108" stroke-miterlimit="10" stroke-linecap="round" stroke-linejoin="round"/>
<path d="M445.692 297.577V284.617" stroke="#F0F0F0" stroke-width="6.3108" stroke-miterlimit="10" stroke-linecap="round" stroke-linejoin="round"/>
<path d="M388.309 255.815V208.652" stroke="#F0F0F0" stroke-width="6.3108" stroke-miterlimit="10" stroke-linecap="round" stroke-linejoin="round"/>
<path d="M445.692 255.815V208.652" stroke="#F0F0F0" stroke-width="6.3108" stroke-miterlimit="10" stroke-linecap="round" stroke-linejoin="round"/>
<path d="M409.312 83.3648V66.0837" stroke="#F0F0F0" stroke-width="6.3108" stroke-miterlimit="10" stroke-linecap="round" stroke-linejoin="round"/>
<path d="M424.688 83.3648V66.0837" stroke="#F0F0F0" stroke-width="6.3108" stroke-miterlimit="10" stroke-linecap="round" stroke-linejoin="round"/>
<path d="M143.474 118.149H143.494H143.524H143.554H143.584H143.614H143.645H143.675H143.707H143.738H143.77H143.802H143.834H143.867H143.9H143.933H143.967H144H144.034H144.069H144.103H144.138H144.174H144.209H144.245H144.281H144.317H144.354H144.391H144.428H144.466H144.504H144.542H144.58H144.619H144.658H144.698H144.737H144.777H144.817H144.858H144.899H144.94H144.981H145.023H145.065H145.108H145.15H145.193H145.236H145.28H145.324H145.368H145.412H145.457H145.502H145.548H145.593H145.639H145.685H145.732H145.779H145.826H145.874H145.921H145.97H146.018H146.067H146.116H146.165H146.215H146.265H146.315H146.366H146.417H146.468H146.519H146.571H146.623H146.676H146.729H146.782H146.835H146.889H146.943H146.997H147.052H147.107H147.162H147.218H147.274H147.33H147.387H147.444H147.501H147.558H147.616H147.674H147.733H147.792H147.851H147.91H147.97H148.03H148.091H148.151H148.212H148.274H148.336H148.398H148.46H148.523H148.586H148.649H148.713H148.777H148.841H148.906H148.971H149.036H149.102H149.168H149.234H149.301H149.368H149.435H149.503H149.57H149.639H149.707H149.776H149.846H149.915H149.985H150.056H150.126H150.197H150.268H150.34H150.412H150.484H150.557H150.63H150.703H150.777H150.851H150.925H151H151.075H151.15H151.226H151.302H151.378H151.455H151.532H151.61H151.687H151.766H151.844H151.923H152.002H152.081H152.161H152.241H152.322H152.403H152.484H152.565H152.647H152.73H152.812H152.895H152.978H153.062H153.146H153.23H153.315H153.4H153.485H153.571H153.657H153.744H153.831H153.918H154.005H154.093H154.181H154.27H154.359H154.448H154.538H154.628H154.718H154.809H154.9H154.991H155.083H155.175H155.268H155.361H155.454H155.547H155.641H155.736H155.83H155.925H156.021H156.116H156.213H156.309H156.406H156.503H156.601H156.699H156.797H156.896H156.995H157.094H157.194H157.294H157.394H157.495H157.597H157.698H157.8H157.902H158.005H158.108H158.212H158.316H158.42H158.524H158.629H158.735H158.84H158.946H159.053H159.16H159.267H159.374H159.482H159.591H159.699H159.808H159.918H160.028H160.138H160.248H160.359H160.471H160.582H160.694H160.807H160.92H161.033H161.147H161.261H161.375H161.49H161.605H161.72H161.836H161.953H162.069H162.186H162.304H162.422H162.54H162.658H162.777H162.897H163.016H163.137H163.257H163.378H163.499H163.621H163.743H163.866H163.989H164.112H164.235H164.359H164.484H164.609H164.734H164.86H164.986H165.112H165.239H165.366H165.494H165.622H165.75H165.879H166.008H166.137H166.267H166.398H166.529H166.66H166.791H166.923H167.056H167.188H167.322H167.455H167.589H167.723H167.858H167.993H168.129H168.265H168.401H168.538H168.675H168.813H168.951H169.089H169.228H169.367H169.507H169.647H169.787H169.928H170.069H170.211H170.353H170.496H170.638H170.782H170.925H171.07H171.214H171.359H171.504H171.65H171.796H171.943H172.09H172.237H172.385H172.533H172.682H172.831H172.981H173.13H173.281H173.432H173.583H173.734H173.886H174.039H174.192H174.345H174.498H174.653H174.807H174.962H175.117H175.273H175.429H175.586H175.743H175.9H176.058H176.217H176.375H176.534H176.694H176.854H177.015H177.175H177.337H177.498H177.661H177.823H177.986H178.15H178.313H178.478H178.642H178.808H178.973H179.139H179.306H179.472H179.64H179.807H179.976H180.144H180.313H180.483H180.653H180.823H180.994H181.165H181.337H181.509H181.681H181.854H182.028C205.07 118.149 224.65 125.195 243.877 135.807C257.023 143.062 270.094 152.041 283.999 161.593C290.352 165.957 296.879 170.441 303.667 174.935C344.203 201.708 383.62 207.074 417.188 207.074C450.756 207.074 490.173 201.708 530.709 174.935C537.497 170.441 544.024 165.957 550.377 161.593C564.281 152.041 577.353 143.062 590.499 135.807C609.726 125.195 629.306 118.149 652.348 118.149H143.474ZM143.474 118.149V84.5825H160.826C161.082 85.0364 161.442 85.642 161.913 86.3517C162.947 87.9109 164.519 89.9861 166.683 92.0634C171.019 96.226 177.768 100.423 187.278 100.423C196.772 100.423 203.968 96.2409 208.749 92.1203C211.141 90.0588 212.945 87.999 214.154 86.4513C214.753 85.6854 215.207 85.0422 215.517 84.5825H215.522H215.552H215.582H215.612H215.643H215.674H215.706H215.739H215.771H215.805H215.838H215.872H215.907H215.942H215.977H216.013H216.05H216.086H216.124H216.161H216.199H216.238H216.277H216.316H216.356H216.396H216.436H216.477H216.519H216.561H216.603H216.646H216.689H216.732H216.776H216.82H216.865H216.91H216.955H217.001H217.047H217.094H217.141H217.188H217.236H217.284H217.333H217.382H217.431H217.481H217.531H217.582H217.632H217.684H217.735H217.787H217.839H217.892H217.945H217.998H218.052H218.106H218.16H218.215H218.27H218.326H218.382H218.438H218.494H218.551H218.608H218.666H218.724H218.782H218.84H218.899H218.958H219.018H219.078H219.138H219.198H219.259H219.32H219.382H219.443H219.505H219.568H219.63H219.693H219.757H219.82H219.884H219.948H220.013H220.078H220.143H220.208H220.274H220.34H220.406H220.472H220.539H220.606H220.673H220.741H220.809H220.877H220.945H221.014H221.083H221.152H221.222H221.292H221.362H221.432H221.502H221.573H221.644H221.716H221.787H221.859H221.931H222.003H222.076H222.149H222.222H222.295H222.368H222.442H222.516H222.59H222.665H222.739H222.814H222.889H222.964H223.04H223.116H223.192H223.268H223.344H223.421H223.497H223.574H223.652H223.729H223.807H223.884H223.962H224.041H224.119H224.198H224.276H224.355H224.435H224.514H224.593H224.673H224.753H224.833H224.913H224.994H225.074H225.155H225.236H225.317H225.398H225.48H225.561H225.643H225.725H225.807H225.889H225.971H226.054H226.136H226.219H226.302H226.385H226.468H226.552H226.635H226.719H226.803H226.887H226.971H227.055H227.139H227.223H227.308H227.393H227.477H227.562H227.647H227.732H227.818H227.903H227.988H228.074H228.159H228.245H228.331H228.417H228.503H228.589H228.676H228.762H228.848H228.935H229.021H229.108H229.195H229.282H229.369H229.456H229.543H229.63H229.717H229.804H229.892H229.979H230.067H230.154H230.242H230.33H230.417H230.505H230.593H230.681H230.769H230.857H230.945H231.033H231.121H231.209H231.298H231.386H231.474H231.562H231.651H231.739H231.828H231.916H232.005H232.093H232.182H232.27H232.359H232.447H232.536H232.624H232.713H232.802H232.89H232.979H233.068H233.156H233.245H233.333H233.422H233.511H233.599H233.688H233.777H233.865H233.954H234.042H234.131H234.219H234.308H234.396H234.485H234.573H234.662H234.75H234.838H234.926H235.015H235.103H235.191H235.279H235.367H235.455H235.543H235.631H235.719H235.807H235.895H235.983H236.07H236.158H236.245H236.333H236.42H236.508H236.595H236.682H236.769H236.856H236.943H237.03H237.117H237.204H237.291H237.377H237.464H237.55H237.636H237.723H237.809H237.895H237.981H238.067H238.152H238.238H238.323H238.409H238.494H238.579H238.664H238.749H238.834H238.919H239.004H239.088H239.172H239.257H239.341H239.425H239.509H239.592H239.676H239.76H239.843H239.926H240.009H240.092H240.175H240.257H240.34H240.422H240.504H240.586H240.668H240.75H240.831H240.913H240.994H241.075H241.156H241.236H241.317H241.397H241.478H241.558H241.637H241.717H241.797H241.876H241.955H242.034H242.113H242.191H242.269H242.348H242.426H242.503H242.581H242.658H242.735H242.812H242.889H242.966H243.042H243.118H243.194H243.27H243.345H243.42H243.495H243.57H243.645H243.719H243.793H243.867H243.941H244.014H244.087H244.16H244.233H244.306H244.378H244.45H244.521H244.593H244.664H244.735H244.806H244.876H244.947H245.017H245.086H245.156H245.225H245.294H245.362H245.431H245.499H245.567H245.634H245.702H245.769H245.835H245.902H245.968H246.034H246.099H246.165H246.23H246.294H246.359H246.423H246.487H246.55H246.613H246.676H246.739H246.801H246.863H246.925H246.986H247.047H247.108H247.168H247.228H247.288H247.347H247.407H247.465H247.524H247.582H247.64H247.697H247.754H247.811H247.867H247.923H247.979H248.035H248.09H248.144H248.199H248.253H248.306H248.36H248.413C251.51 84.5825 255.253 85.4814 259.657 87.1557C264.045 88.8243 268.987 91.2217 274.459 94.1298C279.756 96.9446 285.51 100.216 291.704 103.737L292.312 104.083C298.73 107.732 305.605 111.634 312.88 115.537C341.954 131.137 377.59 146.866 416.813 146.866C456.036 146.866 491.671 131.137 520.746 115.537C528.02 111.634 534.895 107.732 541.314 104.083L541.922 103.737C548.116 100.216 553.87 96.9446 559.166 94.1298C564.639 91.2217 569.581 88.8243 573.969 87.1557C578.373 85.4814 582.115 84.5825 585.213 84.5825H585.266H585.319H585.373H585.427H585.481H585.536H585.591H585.647H585.702H585.758H585.815H585.872H585.929H585.986H586.044H586.102H586.161H586.219H586.278H586.338H586.398H586.458H586.518H586.579H586.64H586.701H586.763H586.825H586.887H586.95H587.013H587.076H587.139H587.203H587.267H587.332H587.396H587.461H587.527H587.592H587.658H587.724H587.791H587.857H587.924H587.992H588.059H588.127H588.195H588.263H588.332H588.401H588.47H588.54H588.609H588.679H588.749H588.82H588.891H588.962H589.033H589.104H589.176H589.248H589.32H589.393H589.465H589.538H589.612H589.685H589.759H589.833H589.907H589.981H590.056H590.13H590.206H590.281H590.356H590.432H590.508H590.584H590.66H590.737H590.814H590.89H590.968H591.045H591.123H591.2H591.278H591.356H591.435H591.513H591.592H591.671H591.75H591.829H591.909H591.988H592.068H592.148H592.228H592.309H592.389H592.47H592.551H592.632H592.713H592.795H592.876H592.958H593.04H593.122H593.204H593.286H593.369H593.451H593.534H593.617H593.7H593.783H593.866H593.95H594.033H594.117H594.201H594.285H594.369H594.453H594.538H594.622H594.707H594.792H594.876H594.961H595.047H595.132H595.217H595.302H595.388H595.474H595.559H595.645H595.731H595.817H595.903H595.989H596.076H596.162H596.249H596.335H596.422H596.509H596.596H596.682H596.769H596.857H596.944H597.031H597.118H597.206H597.293H597.38H597.468H597.556H597.643H597.731H597.819H597.907H597.995H598.082H598.17H598.259H598.347H598.435H598.523H598.611H598.699H598.788H598.876H598.964H599.053H599.141H599.23H599.318H599.407H599.495H599.584H599.672H599.761H599.849H599.938H600.026H600.115H600.204H600.292H600.381H600.47H600.558H600.647H600.736H600.824H600.913H601.001H601.09H601.179H601.267H601.356H601.444H601.533H601.621H601.71H601.798H601.887H601.975H602.063H602.152H602.24H602.328H602.416H602.505H602.593H602.681H602.769H602.857H602.945H603.033H603.121H603.208H603.296H603.384H603.472H603.559H603.647H603.734H603.821H603.909H603.996H604.083H604.17H604.257H604.344H604.431H604.518H604.604H604.691H604.778H604.864H604.95H605.037H605.123H605.209H605.295H605.381H605.466H605.552H605.638H605.723H605.808H605.894H605.979H606.064H606.149H606.233H606.318H606.402H606.487H606.571H606.655H606.739H606.823H606.907H606.991H607.074H607.157H607.241H607.324H607.407H607.489H607.572H607.655H607.737H607.819H607.901H607.983H608.065H608.146H608.228H608.309H608.39H608.471H608.552H608.632H608.713H608.793H608.873H608.953H609.033H609.112H609.191H609.27H609.349H609.428H609.507H609.585H609.663H609.741H609.819H609.897H609.974H610.051H610.128H610.205H610.282H610.358H610.434H610.51H610.586H610.661H610.737H610.812H610.887H610.961H611.036H611.11H611.184H611.258H611.331H611.404H611.477H611.55H611.623H611.695H611.767H611.839H611.91H611.982H612.053H612.123H612.194H612.264H612.334H612.404H612.473H612.543H612.612H612.68H612.749H612.817H612.885H612.952H613.02H613.087H613.154H613.22H613.286H613.352H613.418H613.483H613.548H613.613H613.678H613.742H613.806H613.869H613.932H613.995H614.058H614.12H614.182H614.244H614.306H614.367H614.427H614.488H614.548H614.608H614.667H614.727H614.785H614.844H614.902H614.96H615.017H615.075H615.132H615.188H615.244H615.3H615.355H615.411H615.465H615.52H615.574H615.628H615.681H615.734H615.787H615.839H615.891H615.942H615.994H616.044H616.095H616.145H616.195H616.244H616.293H616.341H616.39H616.437H616.485H616.532H616.578H616.625H616.671H616.716H616.761H616.806H616.85H616.894H616.937H616.98H617.023H617.065H617.107H617.148H617.189H617.23H617.27H617.31H617.349H617.388H617.427H617.465H617.502H617.539H617.576H617.612H617.648H617.684H617.719H617.753H617.788H617.821H617.854H617.887H617.919H617.951H617.983H618.014H618.044H618.074H618.104H618.133H618.136C618.136 84.5836 618.137 84.5847 618.138 84.5859C618.459 85.0359 618.932 85.67 619.556 86.4267C620.801 87.9384 622.652 89.9496 625.09 91.9619C629.962 95.9836 637.244 100.063 646.723 100.063C656.221 100.063 662.965 95.9669 667.305 91.8959C669.47 89.8647 671.044 87.8351 672.079 86.3093C672.597 85.5454 672.982 84.9046 673.241 84.4488C673.37 84.2207 673.468 84.0386 673.536 83.9101C673.569 83.8459 673.595 83.795 673.614 83.7585L673.636 83.7145L673.642 83.7008L673.645 83.696L673.646 83.6942C673.646 83.6934 673.646 83.6927 672.226 83.0048H692.479V118.574C692.479 118.149 692.479 118.149 692.479 118.149H692.478H692.478H692.477H692.475H692.474H692.472H692.47H692.467H692.465H692.462H692.459H692.456H692.452H692.448H692.444H692.44H692.436H692.431H692.426H692.421H692.415H692.409H692.403H692.397H692.391H692.384H692.377H692.37H692.362H692.354H692.346H692.338H692.33H692.321H692.312H692.302H692.293H692.283H692.273H692.263H692.252H692.241H692.23H692.219H692.207H692.195H692.183H692.171H692.158H692.146H692.132H692.119H692.105H692.091H692.077H692.063H692.048H692.033H692.018H692.002H691.986H691.97H691.954H691.938H691.921H691.904H691.886H691.869H691.851H691.832H691.814H691.795H691.776H691.757H691.738H691.718H691.698H691.677H691.657H691.636H691.615H691.593H691.572H691.55H691.528H691.505H691.482H691.459H691.436H691.412H691.388H691.364H691.34H691.315H691.29H691.265H691.239H691.213H691.187H691.161H691.134H691.107H691.08H691.053H691.025H690.997H690.968H690.94H690.911H690.902M143.474 118.149H690.902M690.902 118.149H690.882H690.852H690.822H690.792H690.762H690.731H690.701H690.669H690.638H690.606H690.574H690.542H690.509H690.476H690.443H690.409H690.376H690.342H690.307H690.273H690.238H690.202H690.167H690.131H690.095H690.059H690.022H689.985H689.948H689.91H689.872H689.834H689.796H689.757H689.718H689.678H689.639H689.599H689.559H689.518H689.477H689.436H689.395H689.353H689.311H689.268H689.226H689.183H689.14H689.096H689.052H689.008H688.964H688.919H688.874H688.828H688.783H688.737H688.69H688.644H688.597H688.55H688.502H688.454H688.406H688.358H688.309H688.26H688.211H688.161H688.111H688.061H688.01H687.959H687.908H687.857H687.805H687.753H687.7H687.647H687.594H687.541H687.487H687.433H687.379H687.324H687.269H687.214H687.158H687.102H687.046H686.989H686.932H686.875H686.818H686.76H686.702H686.643H686.584H686.525H686.466H686.406H686.346H686.285H686.225H686.164H686.102H686.04H685.978H685.916H685.853H685.79H685.727H685.663H685.599H685.535H685.47H685.405H685.34H685.274H685.208H685.142H685.075H685.008H684.941H684.873H684.805H684.737H684.669H684.6H684.53H684.461H684.391H684.32H684.25H684.179H684.108H684.036H683.964H683.892H683.819H683.746H683.673H683.599H683.525H683.451H683.376H683.301H683.226H683.15H683.074H682.997H682.921H682.844H682.766H682.689H682.61H682.532H682.453H682.374H682.295H682.215H682.135H682.054H681.973H681.892H681.811H681.729H681.646H681.564H681.481H681.398H681.314H681.23H681.146H681.061H680.976H680.891H680.805H680.719H680.632H680.545H680.458H680.371H680.283H680.195H680.106H680.017H679.928H679.838H679.748H679.658H679.567H679.476H679.385H679.293H679.201H679.108H679.015H678.922H678.829H678.735H678.64H678.546H678.451H678.355H678.26H678.163H678.067H677.97H677.873H677.775H677.677H677.579H677.48H677.381H677.282H690.902Z" stroke="#F0F0F0" stroke-width="3.1554"/>
<path d="M672.226 83.0048C672.226 83.0048 664.725 98.4857 646.723 98.4857C628.72 98.4857 618.968 83.0048 618.968 83.0048C618.968 83.0048 594.215 83.0048 585.213 83.0048C558.209 83.0048 494.45 145.288 416.813 145.288C339.176 145.288 275.417 83.0048 248.413 83.0048C239.411 83.0048 214.657 83.0048 214.657 83.0048C214.657 83.0048 205.281 98.8457 187.278 98.8457C169.276 98.8457 161.774 83.0048 161.774 83.0048H141.896V119.727C141.896 119.727 152.398 119.727 182.028 119.727C227.409 119.727 259.289 147.449 302.796 176.25C343.677 203.252 383.433 208.652 417.188 208.652C450.943 208.652 490.699 203.252 531.58 176.25C575.087 147.449 606.967 119.727 652.348 119.727C681.978 119.727 692.479 119.727 692.479 119.727V83.0048H672.226Z" stroke="#F0F0F0" stroke-width="6.3108" stroke-miterlimit="10" stroke-linecap="round" stroke-linejoin="round"/>
<path d="M748.737 464.49H546.207C527.824 464.49 512.925 448.548 512.183 428.403H782.761C782.018 448.548 767.119 464.49 748.737 464.49Z" stroke="#F0F0F0" stroke-width="3.1554"/>
<path d="M541.331 467.867C541.331 473.988 545.832 479.028 551.458 479.028H743.486C749.112 479.028 753.613 473.988 753.613 467.867" stroke="#F0F0F0" stroke-width="6.3108" stroke-miterlimit="10" stroke-linecap="round" stroke-linejoin="round"/>
<path d="M773.116 426.105L647.472 160.409L521.828 426.105" stroke="#F0F0F0" stroke-width="6.3108" stroke-miterlimit="10" stroke-linecap="round" stroke-linejoin="round"/>
<path d="M647.472 167.61V94.1654" stroke="#F0F0F0" stroke-width="9.4662" stroke-miterlimit="10" stroke-linecap="round" stroke-linejoin="round"/>
<path d="M287.793 464.49H85.2622C66.88 464.49 51.981 448.548 51.2385 428.403H321.816C321.074 448.548 306.175 464.49 287.793 464.49Z" stroke="#F0F0F0" stroke-width="3.1554"/>
<path d="M546.207 466.067H748.737C768.615 466.067 784.367 448.426 784.367 426.825H510.576C510.576 448.426 526.329 466.067 546.207 466.067Z" stroke="#F0F0F0" stroke-width="6.3108" stroke-miterlimit="10" stroke-linecap="round" stroke-linejoin="round"/>
<path d="M85.2622 466.067H287.793C307.671 466.067 323.423 448.426 323.423 426.825H49.6318C49.6318 448.426 65.3842 466.067 85.2622 466.067Z" stroke="#F0F0F0" stroke-width="6.3108" stroke-miterlimit="10" stroke-linecap="round" stroke-linejoin="round"/>
<path d="M80.0117 467.867C80.0117 473.988 84.5124 479.028 90.1382 479.028H282.167C287.793 479.028 292.294 473.988 292.294 467.867" stroke="#F0F0F0" stroke-width="6.3108" stroke-miterlimit="10" stroke-linecap="round" stroke-linejoin="round"/>
<path d="M312.172 426.105L186.528 160.409L60.8838 426.105" stroke="#F0F0F0" stroke-width="6.3108" stroke-miterlimit="10" stroke-linecap="round" stroke-linejoin="round"/>
<path d="M186.527 167.61V94.1654" stroke="#F0F0F0" stroke-width="9.4662" stroke-miterlimit="10" stroke-linecap="round" stroke-linejoin="round"/>
<path d="M393.559 142.048V106.046C393.559 93.8054 404.06 83.7248 416.812 83.7248C429.564 83.7248 440.066 93.8054 440.066 106.046V142.048" stroke="#F0F0F0" stroke-width="6.3108" stroke-miterlimit="10" stroke-linecap="round" stroke-linejoin="round"/>
<path d="M442.691 39.8022C442.691 53.483 431.065 64.6437 416.812 64.6437C402.56 64.6437 390.934 53.483 390.934 39.8022C390.934 26.1214 402.56 14.9607 416.812 14.9607C431.065 14.9607 442.691 26.1214 442.691 39.8022Z" stroke="#F0F0F0" stroke-width="6.3108" stroke-miterlimit="10" stroke-linecap="round" stroke-linejoin="round"/>
<path d="M186.527 167.61V426.105" stroke="#F0F0F0" stroke-width="6.3108" stroke-miterlimit="10" stroke-linecap="round" stroke-linejoin="round"/>
<path d="M647.472 167.61V426.105" stroke="#F0F0F0" stroke-width="6.3108" stroke-miterlimit="10" stroke-linecap="round" stroke-linejoin="round"/>
</g>
</svg>
